ply
format ascii 1.0
element vertex 28
property float x
property float y
property float z
property float nx
property float ny
property float nz
property uchar red
property uchar green
property uchar blue
end_header
5.95407 -0.0364217 0.447301 0 0 0.582771 255 0 0 
5.95407 -0.0364217 0.447301 -0.0461617 -0.0819818 0.424944 255 0 0 
5.95407 -0.0364217 0.447301 1 -0.639224 -0.0146915 255 0 0 
5.95407 -0.0364217 0.447301 0 0.424944 0.0819818 255 0 0 
6.06531 -0.118123 0.3416 0 0 0 0 0 255 
5.94963 -0.0591491 0.352077 0 0 0 0 0 255 
6.02369 -0.0880193 0.358931 0 0 0 0 0 255 
5.84099 0.0339026 0.351581 0 0 0 0 0 255 
6.08213 -0.117849 0.447114 0 0 0 0 0 255 
6.03274 -0.0762374 0.452208 0 0 0 0 0 255 
5.83304 0.029701 0.45364 0 0 0 0 0 255 
5.95268 -0.0184045 0.54605 0 0 0 0 0 255 
6.03207 -0.0665053 0.553769 0 0 0 0 0 255 
5.84733 0.0599017 0.55104 0 0 0 0 0 255 
5.90987 0.00986306 0.545798 0 0 0 0 0 255 
6.18663 -0.213365 0.253614 0 0 0 0 0 255 
6.06781 -0.119257 0.245539 0 0 0 0 0 255 
6.13175 -0.165727 0.258479 0 0 0 0 0 255 
5.88785 -0.0121477 0.248992 0 0 0 0 0 255 
5.9456 -0.0659944 0.25231 0 0 0 0 0 255 
6.00898 -0.0910075 0.248274 0 0 0 0 0 255 
5.76126 0.062525 0.252542 0 0 0 0 0 255 
5.84275 0.0309874 0.248695 0 0 0 0 0 255 
5.71012 0.11012 0.249314 0 0 0 0 0 255 
6.19255 -0.207439 0.352915 0 0 0 0 0 255 
6.13299 -0.164244 0.347956 0 0 0 0 0 255 
5.74416 0.0470341 0.350889 0 0 0 0 0 255 
5.72505 0.109141 0.37673 0 0 0 0 0 255 
